<mxfile>
    <diagram id="6V1vayTC9GVCAyWxqYkF" name="ページ1">
        <mxGraphModel dx="820" dy="488" grid="1" gridSize="10" guides="1" tooltips="1" connect="1" arrows="1" fold="1" page="1" pageScale="1" pageWidth="827" pageHeight="1169" math="1" shadow="0">
            <root>
                <mxCell id="0"/>
                <mxCell id="1" parent="0"/>
                <mxCell id="3" value="" style="rounded=0;whiteSpace=wrap;html=1;fillColor=#FFFFFF;strokeColor=none;" vertex="1" parent="1">
                    <mxGeometry x="190" y="50" width="370" height="250" as="geometry"/>
                </mxCell>
                <mxCell id="2" value="" style="ellipse;whiteSpace=wrap;html=1;aspect=fixed;fillColor=#FFFFFF;strokeColor=#000000;" vertex="1" parent="1">
                    <mxGeometry x="300" y="100" width="80" height="80" as="geometry"/>
                </mxCell>
                <mxCell id="4" value="" style="endArrow=classic;html=1;strokeColor=#000000;" edge="1" parent="1">
                    <mxGeometry width="50" height="50" relative="1" as="geometry">
                        <mxPoint x="230" y="270" as="sourcePoint"/>
                        <mxPoint x="530" y="190" as="targetPoint"/>
                    </mxGeometry>
                </mxCell>
                <mxCell id="5" value="" style="endArrow=classic;html=1;strokeColor=#000000;entryX=0.975;entryY=0.338;entryDx=0;entryDy=0;entryPerimeter=0;" edge="1" parent="1" target="2">
                    <mxGeometry width="50" height="50" relative="1" as="geometry">
                        <mxPoint x="230" y="270" as="sourcePoint"/>
                        <mxPoint x="280" y="220" as="targetPoint"/>
                    </mxGeometry>
                </mxCell>
                <mxCell id="12" value="" style="endArrow=none;html=1;fontSize=14;fontColor=#000000;strokeColor=#000000;dashed=1;" edge="1" parent="1">
                    <mxGeometry width="50" height="50" relative="1" as="geometry">
                        <mxPoint x="364" y="60" as="sourcePoint"/>
                        <mxPoint x="414" y="280" as="targetPoint"/>
                    </mxGeometry>
                </mxCell>
                <mxCell id="20" value="" style="shape=image;imageAspect=0;aspect=fixed;verticalLabelPosition=bottom;verticalAlign=top;fontSize=14;fontColor=#000000;strokeColor=#000000;fillColor=#FFFFFF;image=data:image/svg+xml,PHN2ZyB4bWxucz0iaHR0cDovL3d3dy53My5vcmcvMjAwMC9zdmciIHhtbG5zOnhsaW5rPSJodHRwOi8vd3d3LnczLm9yZy8xOTk5L3hsaW5rIiBoZWlnaHQ9IjcuMjIyOTE5NDY0MTExMzI4IiB2ZXJzaW9uPSIxLjEiIHZpZXdCb3g9IjIyMy4zMzM5MDgwODEwNTQ3IDU4Ljg5MjU2NjY4MDkwODIgNS41NTA3NTA3MzI0MjE4NzUgNy4yMjI5MTk0NjQxMTEzMjgiIHdpZHRoPSI1LjU1MDc1MDczMjQyMTg3NSI+JiN4YTs8ZGVmcz4mI3hhOzxwYXRoIGQ9Ik00LjY2MjUyIC0zLjcwNjFDNC42NjI1MiAtNC4yNDQwOCA0LjQwMzQ5IC00LjQwMzQ5IDQuMjI0MTYgLTQuNDAzNDlDMy45NzUwOSAtNC40MDM0OSAzLjczNTk5IC00LjE0NDQ2IDMuNzM1OTkgLTMuOTI1MjhDMy43MzU5OSAtMy43OTU3NyAzLjc4NTggLTMuNzM1OTkgMy44OTUzOSAtMy42MjY0QzQuMTA0NjEgLTMuNDI3MTUgNC4yMzQxMiAtMy4xNjgxMiA0LjIzNDEyIC0yLjgwOTQ2QzQuMjM0MTIgLTIuMzkxMDMgMy42MjY0IC0wLjEwOTU4OSAyLjQ2MDc3IC0wLjEwOTU4OUMxLjk1MjY4IC0wLjEwOTU4OSAxLjcyMzU0IC0wLjQ1ODI4MSAxLjcyMzU0IC0wLjk3NjMzOUMxLjcyMzU0IC0xLjUzNDI1IDEuOTkyNTMgLTIuMjYxNTIgMi4zMDEzNyAtMy4wODg0MkMyLjM3MTExIC0zLjI1Nzc4IDIuNDIwOTIgLTMuMzk3MjYgMi40MjA5MiAtMy41ODY1NUMyLjQyMDkyIC00LjAzNDg3IDIuMTAyMTIgLTQuNDAzNDkgMS42MDM5OSAtNC40MDM0OUMwLjY2NzQ5NyAtNC40MDM0OSAwLjI4ODkxNyAtMi45NTg5IDAuMjg4OTE3IC0yLjg2OTI0QzAuMjg4OTE3IC0yLjc2OTYxIDAuMzg4NTQzIC0yLjc2OTYxIDAuNDA4NDY4IC0yLjc2OTYxQzAuNTA4MDk1IC0yLjc2OTYxIDAuNTE4MDU3IC0yLjc4OTU0IDAuNTY3ODcgLTIuOTQ4OTRDMC44NTY3ODcgLTMuOTU1MTcgMS4yODUxOCAtNC4xODQzMSAxLjU3NDEgLTQuMTg0MzFDMS42NTM4IC00LjE4NDMxIDEuODIzMTYgLTQuMTg0MzEgMS44MjMxNiAtMy44NjU1QzEuODIzMTYgLTMuNjE2NDQgMS43MjM1NCAtMy4zNDc0NSAxLjY1MzggLTMuMTY4MTJDMS4yMTU0NCAtMi4wMTI0NSAxLjA4NTkzIC0xLjU1NDE3IDEuMDg1OTMgLTEuMTI1NzhDMS4wODU5MyAtMC4wNDk4MTMyIDEuOTYyNjQgMC4xMDk1ODkgMi40MjA5MiAwLjEwOTU4OUM0LjA5NDY1IDAuMTA5NTg5IDQuNjYyNTIgLTMuMTg4MDQgNC42NjI1MiAtMy43MDYxWiIgaWQ9ImcwLTExOCIvPiYjeGE7PHBhdGggZD0iTTUuMzQ5OTQgLTUuOTI3NzdDNS4yMTA0NiAtNS43OTgyNiA0Ljg4MTY5IC01LjUxOTMgNC44ODE2OSAtNS4zMzk5OEM0Ljg4MTY5IC01LjI0MDM1IDQuOTgxMzIgLTUuMTQwNzIgNS4wODA5NSAtNS4xNDA3MkM1LjE3MDYxIC01LjE0MDcyIDUuMjIwNDIgLTUuMjEwNDYgNS4yNzAyNCAtNS4yNzAyNEM1LjM4OTc5IC01LjQxOTY4IDUuNjE4OTMgLTUuNjk4NjMgNi4wNTcyOSAtNS45MTc4MUM2LjEyNzAyIC01Ljk1NzY2IDYuMjI2NjUgLTYuMDA3NDcgNi4yMjY2NSAtNi4xMjcwMkM2LjIyNjY1IC02LjIyNjY1IDYuMTU2OTEgLTYuMjc2NDYgNi4wODcxNyAtNi4zMjYyOEM1Ljg2OCAtNi40NzU3MiA1Ljc1ODQxIC02LjY1NTA0IDUuNjc4NyAtNi44OTQxNUM1LjY1ODc4IC02Ljk4MzgxIDUuNjE4OTMgLTcuMTEzMzMgNS40Nzk0NSAtNy4xMTMzM1M1LjI4MDIgLTYuOTgzODEgNS4yODAyIC02LjkwNDExQzUuMjgwMiAtNi44NTQzIDUuMzU5OSAtNi41MzU0OSA1LjUxOTMgLTYuMzI2MjhIMi4xNjE4OUMxLjk5MjUzIC02LjMyNjI4IDEuODEzMiAtNi4zMjYyOCAxLjgxMzIgLTYuMTI3MDJTMS45OTI1MyAtNS45Mjc3NyAyLjE2MTg5IC01LjkyNzc3SDUuMzQ5OTRaIiBpZD0iZzAtMTI2Ii8+JiN4YTs8L2RlZnM+JiN4YTs8ZyBpZD0icGFnZTEiPiYjeGE7PHVzZSB4PSIyMjIuNjU4IiB4bGluazpocmVmPSIjZzAtMTI2IiB5PSI2Ni4wMDU5Ii8+JiN4YTs8dXNlIHg9IjIyMy4wNDUiIHhsaW5rOmhyZWY9IiNnMC0xMTgiIHk9IjY2LjAwNTkiLz4mI3hhOzwvZz4mI3hhOzwvc3ZnPg==;" vertex="1" parent="1">
                    <mxGeometry x="520" y="200" width="17.15" height="20" as="geometry"/>
                </mxCell>
                <mxCell id="21" value="" style="shape=image;imageAspect=0;aspect=fixed;verticalLabelPosition=bottom;verticalAlign=top;fontSize=14;fontColor=#000000;strokeColor=#000000;fillColor=#FFFFFF;image=data:image/svg+xml,PHN2ZyB4bWxucz0iaHR0cDovL3d3dy53My5vcmcvMjAwMC9zdmciIHhtbG5zOnhsaW5rPSJodHRwOi8vd3d3LnczLm9yZy8xOTk5L3hsaW5rIiBoZWlnaHQ9IjkuOTYyNjM4ODU0OTgwNDY5IiB2ZXJzaW9uPSIxLjEiIHZpZXdCb3g9IjkuNDcwODQ3MTI5ODIxNzc3IDM1LjYxOTgxOTY0MTExMzI4IDIxLjI3MjQ0OTQ5MzQwODIwMyA5Ljk2MjYzODg1NDk4MDQ2OSIgd2lkdGg9IjIxLjI3MjQ0OTQ5MzQwODIwMyI+JiN4YTs8ZGVmcz4mI3hhOzxwYXRoIGQ9Ik00LjY2MjUyIC0zLjcwNjFDNC42NjI1MiAtNC4yNDQwOCA0LjQwMzQ5IC00LjQwMzQ5IDQuMjI0MTYgLTQuNDAzNDlDMy45NzUwOSAtNC40MDM0OSAzLjczNTk5IC00LjE0NDQ2IDMuNzM1OTkgLTMuOTI1MjhDMy43MzU5OSAtMy43OTU3NyAzLjc4NTggLTMuNzM1OTkgMy44OTUzOSAtMy42MjY0QzQuMTA0NjEgLTMuNDI3MTUgNC4yMzQxMiAtMy4xNjgxMiA0LjIzNDEyIC0yLjgwOTQ2QzQuMjM0MTIgLTIuMzkxMDMgMy42MjY0IC0wLjEwOTU4OSAyLjQ2MDc3IC0wLjEwOTU4OUMxLjk1MjY4IC0wLjEwOTU4OSAxLjcyMzU0IC0wLjQ1ODI4MSAxLjcyMzU0IC0wLjk3NjMzOUMxLjcyMzU0IC0xLjUzNDI1IDEuOTkyNTMgLTIuMjYxNTIgMi4zMDEzNyAtMy4wODg0MkMyLjM3MTExIC0zLjI1Nzc4IDIuNDIwOTIgLTMuMzk3MjYgMi40MjA5MiAtMy41ODY1NUMyLjQyMDkyIC00LjAzNDg3IDIuMTAyMTIgLTQuNDAzNDkgMS42MDM5OSAtNC40MDM0OUMwLjY2NzQ5NyAtNC40MDM0OSAwLjI4ODkxNyAtMi45NTg5IDAuMjg4OTE3IC0yLjg2OTI0QzAuMjg4OTE3IC0yLjc2OTYxIDAuMzg4NTQzIC0yLjc2OTYxIDAuNDA4NDY4IC0yLjc2OTYxQzAuNTA4MDk1IC0yLjc2OTYxIDAuNTE4MDU3IC0yLjc4OTU0IDAuNTY3ODcgLTIuOTQ4OTRDMC44NTY3ODcgLTMuOTU1MTcgMS4yODUxOCAtNC4xODQzMSAxLjU3NDEgLTQuMTg0MzFDMS42NTM4IC00LjE4NDMxIDEuODIzMTYgLTQuMTg0MzEgMS44MjMxNiAtMy44NjU1QzEuODIzMTYgLTMuNjE2NDQgMS43MjM1NCAtMy4zNDc0NSAxLjY1MzggLTMuMTY4MTJDMS4yMTU0NCAtMi4wMTI0NSAxLjA4NTkzIC0xLjU1NDE3IDEuMDg1OTMgLTEuMTI1NzhDMS4wODU5MyAtMC4wNDk4MTMyIDEuOTYyNjQgMC4xMDk1ODkgMi40MjA5MiAwLjEwOTU4OUM0LjA5NDY1IDAuMTA5NTg5IDQuNjYyNTIgLTMuMTg4MDQgNC42NjI1MiAtMy43MDYxWiIgaWQ9ImcwLTExOCIvPiYjeGE7PHBhdGggZD0iTTUuMzQ5OTQgLTUuOTI3NzdDNS4yMTA0NiAtNS43OTgyNiA0Ljg4MTY5IC01LjUxOTMgNC44ODE2OSAtNS4zMzk5OEM0Ljg4MTY5IC01LjI0MDM1IDQuOTgxMzIgLTUuMTQwNzIgNS4wODA5NSAtNS4xNDA3MkM1LjE3MDYxIC01LjE0MDcyIDUuMjIwNDIgLTUuMjEwNDYgNS4yNzAyNCAtNS4yNzAyNEM1LjM4OTc5IC01LjQxOTY4IDUuNjE4OTMgLTUuNjk4NjMgNi4wNTcyOSAtNS45MTc4MUM2LjEyNzAyIC01Ljk1NzY2IDYuMjI2NjUgLTYuMDA3NDcgNi4yMjY2NSAtNi4xMjcwMkM2LjIyNjY1IC02LjIyNjY1IDYuMTU2OTEgLTYuMjc2NDYgNi4wODcxNyAtNi4zMjYyOEM1Ljg2OCAtNi40NzU3MiA1Ljc1ODQxIC02LjY1NTA0IDUuNjc4NyAtNi44OTQxNUM1LjY1ODc4IC02Ljk4MzgxIDUuNjE4OTMgLTcuMTEzMzMgNS40Nzk0NSAtNy4xMTMzM1M1LjI4MDIgLTYuOTgzODEgNS4yODAyIC02LjkwNDExQzUuMjgwMiAtNi44NTQzIDUuMzU5OSAtNi41MzU0OSA1LjUxOTMgLTYuMzI2MjhIMi4xNjE4OUMxLjk5MjUzIC02LjMyNjI4IDEuODEzMiAtNi4zMjYyOCAxLjgxMzIgLTYuMTI3MDJTMS45OTI1MyAtNS45Mjc3NyAyLjE2MTg5IC01LjkyNzc3SDUuMzQ5OTRaIiBpZD0iZzAtMTI2Ii8+JiN4YTs8cGF0aCBkPSJNMi4zNzgwOCAtMi4xNjE4OUgzLjY0MDM1QzQuODE4OTMgLTIuMTYxODkgNS44MTYxOSAtMi45MTUwNyA1LjgxNjE5IC0zLjY3NTIyQzUuODE2MTkgLTQuMjYxMDIgNS4yNDQzMyAtNC43NjMxNCA0LjI4ODkyIC00Ljc2MzE0SDEuODQ4MDdDMS43MDg1OSAtNC43NjMxNCAxLjYyNDkxIC00Ljc2MzE0IDEuNjI0OTEgLTQuNjA5NzFDMS42MjQ5MSAtNC41MTIwOCAxLjcwMTYyIC00LjUxMjA4IDEuODU1MDQgLTQuNTEyMDhDMS45NjY2MyAtNC41MTIwOCAxLjk5NDUyIC00LjUxMjA4IDIuMTIwMDUgLTQuNDk4MTNDMi4yNTk1MyAtNC40ODQxOCAyLjI3MzQ3IC00LjQ3MDI0IDIuMjczNDcgLTQuNDAwNUMyLjI3MzQ3IC00LjM4NjU1IDIuMjczNDcgLTQuMzUxNjggMi4yNDU1OCAtNC4yNDcwN0wxLjMyNTAzIC0wLjU3MTg1NkMxLjI1NTI5IC0wLjI5OTg3NSAxLjI0ODMyIC0wLjI1MTA1OSAwLjcwNDM1OSAtMC4yNTEwNTlDMC41Nzg4MjkgLTAuMjUxMDU5IDAuNDk1MTQzIC0wLjI1MTA1OSAwLjQ5NTE0MyAtMC4wOTc2MzM5QzAuNDk1MTQzIC0wLjA5MDY2IDAuNDk1MTQzIDAgMC42MDY3MjUgMEMwLjgwODk2NiAwIDEuMzExMDggLTAuMDI3ODk1NCAxLjUxMzMzIC0wLjAyNzg5NTRDMS42MzE4OCAtMC4wMjc4OTU0IDEuODc1OTcgLTAuMDI3ODk1NCAxLjk5NDUyIC0wLjAyMDkyMTVDMi4xMzQgLTAuMDEzOTQ3NyAyLjMwODM0IDAgMi40NDA4NSAwQzIuNDgyNjkgMCAyLjU4NzMgMCAyLjU4NzMgLTAuMTUzNDI1QzIuNTg3MyAtMC4yNTEwNTkgMi41MDM2MSAtMC4yNTEwNTkgMi4zNjQxMyAtMC4yNTEwNTlDMi4zNTcxNiAtMC4yNTEwNTkgMi4yMjQ2NiAtMC4yNTEwNTkgMi4wOTkxMyAtMC4yNjUwMDZDMS45Mzg3MyAtMC4yNzg5NTQgMS45Mzg3MyAtMC4yOTk4NzUgMS45Mzg3MyAtMC4zNjk2MTRDMS45Mzg3MyAtMC4zNzY1ODggMS45Mzg3MyAtMC40MTg0MzEgMS45NjY2MyAtMC41MjMwMzlMMi4zNzgwOCAtMi4xNjE4OVpNMi44ODAyIC00LjI3NDk3QzIuOTM1OTkgLTQuNDkxMTYgMi45NDI5NiAtNC41MTIwOCAzLjIzNTg3IC00LjUxMjA4SDQuMDUxODFDNC43MDAzNyAtNC41MTIwOCA1LjEwNDg2IC00LjMxNjgxIDUuMTA0ODYgLTMuODIxNjdDNS4xMDQ4NiAtMy42MDU0OCA1LjAyMTE3IC0zLjA1NDU1IDQuNjcyNDggLTIuNzQwNzJDNC40MjE0MiAtMi41MTc1NiA0LjAyMzkxIC0yLjM4NTA2IDMuNTIxNzkgLTIuMzg1MDZIMi40MDU5OEwyLjg4MDIgLTQuMjc0OTdaIiBpZD0iZzEtODAiLz4mI3hhOzxwYXRoIGQ9Ik0zLjI5NzYzIDIuMzkxMDNDMy4yOTc2MyAyLjM2MTE1IDMuMjk3NjMgMi4zNDEyMiAzLjEyODI3IDIuMTcxODZDMS44ODI5NCAwLjkxNjU2MyAxLjU2NDEzIC0wLjk2NjM3NiAxLjU2NDEzIC0yLjQ5MDY2QzEuNTY0MTMgLTQuMjI0MTYgMS45NDI3MSAtNS45NTc2NiAzLjE2ODEyIC03LjIwMjk5QzMuMjk3NjMgLTcuMzIyNTQgMy4yOTc2MyAtNy4zNDI0NyAzLjI5NzYzIC03LjM3MjM1QzMuMjk3NjMgLTcuNDQyMDkgMy4yNTc3OCAtNy40NzE5OCAzLjE5ODAxIC03LjQ3MTk4QzMuMDk4MzggLTcuNDcxOTggMi4yMDE3NCAtNi43OTQ1MiAxLjYxMzk1IC01LjUyOTI3QzEuMTA1ODUgLTQuNDMzMzcgMC45ODYzMDEgLTMuMzI3NTIgMC45ODYzMDEgLTIuNDkwNjZDMC45ODYzMDEgLTEuNzEzNTcgMS4wOTU4OSAtMC41MDgwOTUgMS42NDM4NCAwLjYxNzY4NEMyLjI0MTU5IDEuODQzMDkgMy4wOTgzOCAyLjQ5MDY2IDMuMTk4MDEgMi40OTA2NkMzLjI1Nzc4IDIuNDkwNjYgMy4yOTc2MyAyLjQ2MDc3IDMuMjk3NjMgMi4zOTEwM1oiIGlkPSJnMi00MCIvPiYjeGE7PHBhdGggZD0iTTIuODc5MiAtMi40OTA2NkMyLjg3OTIgLTMuMjY3NzUgMi43Njk2MSAtNC40NzMyMyAyLjIyMTY3IC01LjU5OUMxLjYyMzkxIC02LjgyNDQxIDAuNzY3MTIzIC03LjQ3MTk4IDAuNjY3NDk3IC03LjQ3MTk4QzAuNjA3NzIxIC03LjQ3MTk4IDAuNTY3ODcgLTcuNDMyMTMgMC41Njc4NyAtNy4zNzIzNUMwLjU2Nzg3IC03LjM0MjQ3IDAuNTY3ODcgLTcuMzIyNTQgMC43NTcxNjEgLTcuMTQzMjFDMS43MzM1IC02LjE1NjkxIDIuMzAxMzcgLTQuNTcyODUgMi4zMDEzNyAtMi40OTA2NkMyLjMwMTM3IC0wLjc4NzA0OSAxLjkzMjc1IDAuOTY2Mzc2IDAuNjk3Mzg1IDIuMjIxNjdDMC41Njc4NyAyLjM0MTIyIDAuNTY3ODcgMi4zNjExNSAwLjU2Nzg3IDIuMzkxMDNDMC41Njc4NyAyLjQ1MDgxIDAuNjA3NzIxIDIuNDkwNjYgMC42Njc0OTcgMi40OTA2NkMwLjc2NzEyMyAyLjQ5MDY2IDEuNjYzNzYgMS44MTMyIDIuMjUxNTYgMC41NDc5NDVDMi43NTk2NSAtMC41NDc5NDUgMi44NzkyIC0xLjY1MzggMi44NzkyIC0yLjQ5MDY2WiIgaWQ9ImcyLTQxIi8+JiN4YTs8cGF0aCBkPSJNMS43NDM0NiAtNC4yOTM5Vi01LjQ0OTU2QzEuNzQzNDYgLTYuMzI2MjggMi4yMjE2NyAtNi44MDQ0OCAyLjY2MDAyIC02LjgwNDQ4QzIuNjg5OTEgLTYuODA0NDggMi44MzkzNSAtNi44MDQ0OCAyLjk4ODc5IC02LjczNDc0QzIuODY5MjQgLTYuNjk0ODkgMi42ODk5MSAtNi41NjUzOCAyLjY4OTkxIC02LjMxNjMxQzIuNjg5OTEgLTYuMDg3MTcgMi44NDkzMiAtNS44ODc5MiAzLjExODMxIC01Ljg4NzkyQzMuNDA3MjIgLTUuODg3OTIgMy41NTY2NiAtNi4wODcxNyAzLjU1NjY2IC02LjMyNjI4QzMuNTU2NjYgLTYuNjk0ODkgMy4xODgwNCAtNy4wMjM2NiAyLjY2MDAyIC03LjAyMzY2QzEuOTYyNjQgLTcuMDIzNjYgMS4xMTU4MiAtNi40OTU2NCAxLjExNTgyIC01LjQzOTZWLTQuMjkzOUgwLjMyODc2N1YtMy45ODUwNkgxLjExNTgyVi0wLjc1NzE2MUMxLjExNTgyIC0wLjMwODg0MiAxLjAwNjIzIC0wLjMwODg0MiAwLjMzODczIC0wLjMwODg0MlYwQzAuNzI3MjczIC0wLjAwOTk2MjY0IDEuMTk1NTIgLTAuMDI5ODg3OSAxLjQ3NDQ3IC0wLjAyOTg4NzlDMS44NzI5OCAtMC4wMjk4ODc5IDIuMzQxMjIgLTAuMDI5ODg3OSAyLjczOTczIDBWLTAuMzA4ODQySDIuNTMwNTFDMS43OTMyOCAtMC4zMDg4NDIgMS43NzMzNSAtMC40MTg0MzEgMS43NzMzNSAtMC43NzcwODZWLTMuOTg1MDZIMi45MDkwOVYtNC4yOTM5SDEuNzQzNDZaIiBpZD0iZzItMTAyIi8+JiN4YTs8L2RlZnM+JiN4YTs8ZyBpZD0icGFnZTEiPiYjeGE7PHVzZSB4PSI5LjE0MjA4IiB4bGluazpocmVmPSIjZzItMTAyIiB5PSI0My4wOTE4Ii8+JiN4YTs8dXNlIHg9IjEyLjE3NDkiIHhsaW5rOmhyZWY9IiNnMS04MCIgeT0iNDQuNTg2MiIvPiYjeGE7PHVzZSB4PSIxOC44MTc3IiB4bGluazpocmVmPSIjZzItNDAiIHk9IjQzLjA5MTgiLz4mI3hhOzx1c2UgeD0iMjIuMjkwNyIgeGxpbms6aHJlZj0iI2cwLTEyNiIgeT0iNDMuMDkxOCIvPiYjeGE7PHVzZSB4PSIyMi42Nzc2IiB4bGluazpocmVmPSIjZzAtMTE4IiB5PSI0My4wOTE4Ii8+JiN4YTs8dXNlIHg9IjI3Ljg2NDEiIHhsaW5rOmhyZWY9IiNnMi00MSIgeT0iNDMuMDkxOCIvPiYjeGE7PC9nPiYjeGE7PC9zdmc+;" vertex="1" parent="1">
                    <mxGeometry x="390" y="110" width="42" height="20" as="geometry"/>
                </mxCell>
                <mxCell id="22" value="" style="shape=image;imageAspect=0;aspect=fixed;verticalLabelPosition=bottom;verticalAlign=top;fontSize=14;fontColor=#000000;strokeColor=#000000;fillColor=#FFFFFF;image=data:image/svg+xml,PHN2ZyB4bWxucz0iaHR0cDovL3d3dy53My5vcmcvMjAwMC9zdmciIHhtbG5zOnhsaW5rPSJodHRwOi8vd3d3LnczLm9yZy8xOTk5L3hsaW5rIiBoZWlnaHQ9IjkuNDYzNDA1NjA5MTMwODYiIHZlcnNpb249IjEuMSIgdmlld0JveD0iMjIzLjUzNTU1Mjk3ODUxNTYyIDU2Ljc2MTY2OTE1ODkzNTU1IDUuMDcyMDk3Nzc4MzIwMzEyNSA5LjQ2MzQwNTYwOTEzMDg2IiB3aWR0aD0iNS4wNzIwOTc3NzgzMjAzMTI1Ij4mI3hhOzxkZWZzPiYjeGE7PHBhdGggZD0iTTUuMzQ5OTQgLTUuOTI3NzdDNS4yMTA0NiAtNS43OTgyNiA0Ljg4MTY5IC01LjUxOTMgNC44ODE2OSAtNS4zMzk5OEM0Ljg4MTY5IC01LjI0MDM1IDQuOTgxMzIgLTUuMTQwNzIgNS4wODA5NSAtNS4xNDA3MkM1LjE3MDYxIC01LjE0MDcyIDUuMjIwNDIgLTUuMjEwNDYgNS4yNzAyNCAtNS4yNzAyNEM1LjM4OTc5IC01LjQxOTY4IDUuNjE4OTMgLTUuNjk4NjMgNi4wNTcyOSAtNS45MTc4MUM2LjEyNzAyIC01Ljk1NzY2IDYuMjI2NjUgLTYuMDA3NDcgNi4yMjY2NSAtNi4xMjcwMkM2LjIyNjY1IC02LjIyNjY1IDYuMTU2OTEgLTYuMjc2NDYgNi4wODcxNyAtNi4zMjYyOEM1Ljg2OCAtNi40NzU3MiA1Ljc1ODQxIC02LjY1NTA0IDUuNjc4NyAtNi44OTQxNUM1LjY1ODc4IC02Ljk4MzgxIDUuNjE4OTMgLTcuMTEzMzMgNS40Nzk0NSAtNy4xMTMzM1M1LjI4MDIgLTYuOTgzODEgNS4yODAyIC02LjkwNDExQzUuMjgwMiAtNi44NTQzIDUuMzU5OSAtNi41MzU0OSA1LjUxOTMgLTYuMzI2MjhIMi4xNjE4OUMxLjk5MjUzIC02LjMyNjI4IDEuODEzMiAtNi4zMjYyOCAxLjgxMzIgLTYuMTI3MDJTMS45OTI1MyAtNS45Mjc3NyAyLjE2MTg5IC01LjkyNzc3SDUuMzQ5OTRaIiBpZD0iZzAtMTI2Ii8+JiN4YTs8cGF0aCBkPSJNNC41ODI4MSAtMy4xODgwNEM0LjU4MjgxIC0zLjk4NTA2IDQuNTMzIC00Ljc4MjA3IDQuMTg0MzEgLTUuNTE5M0MzLjcyNjAzIC02LjQ3NTcyIDIuOTA5MDkgLTYuNjM1MTIgMi40OTA2NiAtNi42MzUxMkMxLjg5MjkgLTYuNjM1MTIgMS4xNjU2MyAtNi4zNzYwOSAwLjc1NzE2MSAtNS40NDk1NkMwLjQzODM1NiAtNC43NjIxNCAwLjM4ODU0MyAtMy45ODUwNiAwLjM4ODU0MyAtMy4xODgwNEMwLjM4ODU0MyAtMi40NDA4NSAwLjQyODM5NCAtMS41NDQyMSAwLjgzNjg2MiAtMC43ODcwNDlDMS4yNjUyNiAwLjAxOTkyNTMgMS45OTI1MyAwLjIxOTE3OCAyLjQ4MDcgMC4yMTkxNzhDMy4wMTg2OCAwLjIxOTE3OCAzLjc3NTg0IDAuMDA5OTYyNjQgNC4yMTQyIC0wLjkzNjQ4OEM0LjUzMyAtMS42MjM5MSA0LjU4MjgxIC0yLjQwMSA0LjU4MjgxIC0zLjE4ODA0Wk0yLjQ4MDcgMEMyLjA5MjE1IDAgMS41MDQzNiAtMC4yNDkwNjYgMS4zMjUwMyAtMS4yMDU0OEMxLjIxNTQ0IC0xLjgwMzI0IDEuMjE1NDQgLTIuNzE5OCAxLjIxNTQ0IC0zLjMwNzZDMS4yMTU0NCAtMy45NDUyMSAxLjIxNTQ0IC00LjYwMjc0IDEuMjk1MTQgLTUuMTQwNzJDMS40ODQ0MyAtNi4zMjYyOCAyLjIzMTYzIC02LjQxNTk0IDIuNDgwNyAtNi40MTU5NEMyLjgwOTQ2IC02LjQxNTk0IDMuNDY3IC02LjIzNjYxIDMuNjU2MjkgLTUuMjUwMzFDMy43NTU5MiAtNC42OTI0IDMuNzU1OTIgLTMuOTM1MjQgMy43NTU5MiAtMy4zMDc2QzMuNzU1OTIgLTIuNTYwNCAzLjc1NTkyIC0xLjg4Mjk0IDMuNjQ2MzMgLTEuMjQ1MzNDMy40OTY4OSAtMC4yOTg4NzkgMi45MjkwMiAwIDIuNDgwNyAwWiIgaWQ9ImcxLTQ4Ii8+JiN4YTs8L2RlZnM+JiN4YTs8ZyBpZD0icGFnZTEiPiYjeGE7PHVzZSB4PSIyMjIuMzgxIiB4bGluazpocmVmPSIjZzAtMTI2IiB5PSI2My44NzUiLz4mI3hhOzx1c2UgeD0iMjIzLjE0NyIgeGxpbms6aHJlZj0iI2cxLTQ4IiB5PSI2Ni4wMDU5Ii8+JiN4YTs8L2c+JiN4YTs8L3N2Zz4=;" vertex="1" parent="1">
                    <mxGeometry x="210" y="260" width="11.11" height="20" as="geometry"/>
                </mxCell>
                <mxCell id="23" value="" style="shape=image;imageAspect=0;aspect=fixed;verticalLabelPosition=bottom;verticalAlign=top;fontSize=14;fontColor=#000000;strokeColor=#000000;fillColor=#FFFFFF;image=data:image/svg+xml,PHN2ZyB4bWxucz0iaHR0cDovL3d3dy53My5vcmcvMjAwMC9zdmciIHhtbG5zOnhsaW5rPSJodHRwOi8vd3d3LnczLm9yZy8xOTk5L3hsaW5rIiBoZWlnaHQ9IjYuODA0NDgwMDc1ODM2MTgyIiB2ZXJzaW9uPSIxLjEiIHZpZXdCb3g9IjIyMi4xNDY0OTk2MzM3ODkwNiA1OS4yMDE0MTYwMTU2MjUgNy4xMTMzMjM2ODg1MDcwOCA2LjgwNDQ4MDA3NTgzNjE4MiIgd2lkdGg9IjcuMTEzMzIzNjg4NTA3MDgiPiYjeGE7PGRlZnM+JiN4YTs8cGF0aCBkPSJNMy4wMTg2OCAtMy4xNDgxOUg0LjcxMjMzQzYuMTI3MDIgLTMuMTQ4MTkgNy41MTE4MyAtNC4xODQzMSA3LjUxMTgzIC01LjMwMDEyQzcuNTExODMgLTYuMDY3MjUgNi44NTQzIC02LjgwNDQ4IDUuNTQ5MTkgLTYuODA0NDhIMi4zMjEzQzIuMTMyIC02LjgwNDQ4IDIuMDIyNDIgLTYuODA0NDggMi4wMjI0MiAtNi42MTUxOUMyLjAyMjQyIC02LjQ5NTY0IDIuMTEyMDggLTYuNDk1NjQgMi4zMTEzMyAtNi40OTU2NEMyLjQ0MDg1IC02LjQ5NTY0IDIuNjIwMTcgLTYuNDg1NjggMi43Mzk3MyAtNi40NzU3MkMyLjg5OTEzIC02LjQ1NTc5IDIuOTU4OSAtNi40MjU5IDIuOTU4OSAtNi4zMTYzMUMyLjk1ODkgLTYuMjc2NDYgMi45NDg5NCAtNi4yNDY1OCAyLjkxOTA1IC02LjEyNzAyTDEuNTg0MDYgLTAuNzc3MDg2QzEuNDg0NDMgLTAuMzg4NTQzIDEuNDY0NTEgLTAuMzA4ODQyIDAuNjc3NDYgLTAuMzA4ODQyQzAuNTA4MDk1IC0wLjMwODg0MiAwLjM5ODUwNiAtMC4zMDg4NDIgMC4zOTg1MDYgLTAuMTE5NTUyQzAuMzk4NTA2IDAgMC41MTgwNTcgMCAwLjU0Nzk0NSAwQzAuODI2ODk5IDAgMS41MzQyNSAtMC4wMjk4ODc5IDEuODEzMiAtMC4wMjk4ODc5QzIuMDIyNDIgLTAuMDI5ODg3OSAyLjI0MTU5IC0wLjAxOTkyNTMgMi40NTA4MSAtMC4wMTk5MjUzQzIuNjY5OTkgLTAuMDE5OTI1MyAyLjg4OTE3IDAgMy4wOTgzOCAwQzMuMTY4MTIgMCAzLjI5NzYzIDAgMy4yOTc2MyAtMC4xOTkyNTNDMy4yOTc2MyAtMC4zMDg4NDIgMy4yMDc5NyAtMC4zMDg4NDIgMy4wMTg2OCAtMC4zMDg4NDJDMi42NTAwNiAtMC4zMDg4NDIgMi4zNzExMSAtMC4zMDg4NDIgMi4zNzExMSAtMC40ODgxNjlDMi4zNzExMSAtMC41NDc5NDUgMi4zOTEwMyAtMC41OTc3NTggMi40MDEgLTAuNjU3NTM0TDMuMDE4NjggLTMuMTQ4MTlaTTMuNzM1OTkgLTYuMTE3MDZDMy44MjU2NSAtNi40NjU3NSAzLjg0NTU4IC02LjQ5NTY0IDQuMjczOTcgLTYuNDk1NjRINS4yMzAzOUM2LjA1NzI5IC02LjQ5NTY0IDYuNTg1MzEgLTYuMjI2NjUgNi41ODUzMSAtNS41MzkyM0M2LjU4NTMxIC01LjE1MDY4IDYuMzg2MDUgLTQuMjkzOSA1Ljk5NzUxIC0zLjkzNTI0QzUuNDk5MzggLTMuNDg2OTIgNC45MDE2MiAtMy40MDcyMiA0LjQ2MzI2IC0zLjQwNzIySDMuMDU4NTNMMy43MzU5OSAtNi4xMTcwNloiIGlkPSJnMC04MCIvPiYjeGE7PC9kZWZzPiYjeGE7PGcgaWQ9InBhZ2UxIj4mI3hhOzx1c2UgeD0iMjIxLjc0OCIgeGxpbms6aHJlZj0iI2cwLTgwIiB5PSI2Ni4wMDU5Ii8+JiN4YTs8L2c+JiN4YTs8L3N2Zz4=;" vertex="1" parent="1">
                    <mxGeometry x="280" y="110" width="20" height="20" as="geometry"/>
                </mxCell>
            </root>
        </mxGraphModel>
    </diagram>
</mxfile>